# xmcd
#
# Track frame offsets: 
#        150
#        9858
#        19873
#        33286
#        44838
#        56843
#        70638
#        81865
#        93705
#        106325
#        119188
#        129563
#        144285
#        157840
#        169330
#        180557
#        192872
#        206717
#        220807
#        233335
#        245030
#        255060
#        265590
#        277938
#        292765
#        304628
#        316044
#        328669
#        339303
#
# Disc length: 4681 seconds
#
# Revision: 0
# Processed by: cddbd v1.5.2PL0 Copyright (c) Steve Scherf et al.
# Submitted via: ExactAudioCopyFreeDBPlugin 1.0
#
DISCID=8d12471d
DTITLE=Hank Thompson - Songs For Rounders and At The Golden Nugget
DYEAR=2014
DGENRE=Country
TTITLE0=Three Times Seven
TTITLE1=I'll Be A Bachelor Till I Die
TTITLE2=Drunkards' Blues
TTITLE3=Teach 'Em How To Swim
TTITLE4=Dry Bread
TTITLE5=Cocaine Blues
TTITLE6=Deep Elm
TTITLE7=Bummin' Around
TTITLE8=Little Blossom
TTITLE9=Rovin' Gambler
TTITLE10=Left My Gal In The Mountains
TTITLE11=May I Sleep In Your Barn Mister
TTITLE12=Honky-Tonk Girl
TTITLE13=I Guess I'm Getting Over You
TTITLE14=I'll Step Aside
TTITLE15=Orange Blossom Special
TTITLE16=I Didn't Mean To Fall In Love
TTITLE17=John Henry
TTITLE18=Nine Pound Hammer
TTITLE19=She's Just A Whole Lot Like You
TTITLE20=Steel Guitar Rag
TTITLE21=Just One Step Away
TTITLE22=Lost Highway
TTITLE23=A Six Pack To Go
TTITLE24=Detour
TTITLE25=Teach Me How To Lie
TTITLE26=I Don't Hurt Anymore
TTITLE27=Pick Me Up On Your Way Down
TTITLE28=I Cast A Lonesome Shadow
EXTD=
EXTT0=
EXTT1=
EXTT2=
EXTT3=
EXTT4=
EXTT5=
EXTT6=
EXTT7=
EXTT8=
EXTT9=
EXTT10=
EXTT11=
EXTT12=
EXTT13=
EXTT14=
EXTT15=
EXTT16=
EXTT17=
EXTT18=
EXTT19=
EXTT20=
EXTT21=
EXTT22=
EXTT23=
EXTT24=
EXTT25=
EXTT26=
EXTT27=
EXTT28=
PLAYORDER=
